#!OML:ASF H:\Swim 2\Project 1\Capture day 1\Session 1\male.ASF
:FULLY-SPECIFIED
:DEGREES
2429
root 4.40957 14.5437 10.5329 -69.3138 -75.9628 171.649
lowerback -13.177 6.19202 11.2976
upperback -12.9925 6.58645 -12.0761
thorax -3.53083 1.87105 -18.9786
lowerneck -11.2411 -3.9294 7.45579
upperneck 19.5473 -8.96571 8.43593
head 8.08395 -2.99274 0.63919
rclavicle -1.11319e-014 1.11319e-014
rhumerus 60.7403 -16.4463 -23.2286
rradius 39.1952
rwrist -36.8556
rhand -40.2158 -11.2595
rfingers 7.12502
rthumb -13.1758 -40.8231
lclavicle -1.11319e-014 1.11319e-014
lhumerus 462.998 13.0743 -352.34
lradius 33.0275
lwrist 40.8186
lhand -41.688 -14.6841
lfingers 7.12502
lthumb -14.5946 374.782
rfemur -56.1063 -3.373 26.0032
rtibia 48.2704
rfoot 18.0042 5.65914
rtoes -24.7275
lfemur -57.4906 7.26398 -29.2144
ltibia 58.8966
lfoot 18.1116 -3.23241
ltoes -7.86047
2430
root 4.43505 14.5203 10.5297 -69.0789 -76.0108 171.331
lowerback -13.1667 6.24967 11.427
upperback -12.9977 6.65892 -12.2316
thorax -3.47701 1.9021 -19.238
lowerneck -11.3629 -3.99862 7.71633
upperneck 19.5022 -9.06517 8.22805
head 8.07071 -3.03729 0.517833
rclavicle -6.36111e-014 -2.42517e-014
rhumerus 60.2111 -16.5971 -22.8952
rradius 38.9359
rwrist -35.2434
rhand -39.6325 -10.6354
rfingers 7.12502
rthumb -12.6135 -40.2346
lclavicle -6.36111e-014 -2.42517e-014
lhumerus 463.124 12.9932 -352.579
lradius 32.8035
lwrist 40.4515
lhand -41.4944 -15.0861
lfingers 7.12502
lthumb -14.4081 374.394
rfemur -55.8321 -3.34707 26.184
rtibia 46.7944
rfoot 18.1219 5.17042
rtoes -24.5371
lfemur -57.1819 7.02516 -29.0485
ltibia 57.1977
lfoot 18.7049 -3.35163
ltoes -6.98607
2431
root 4.45971 14.4978 10.5267 -68.8932 -76.0471 171.037
lowerback -13.1422 6.29733 11.5366
upperback -13.0006 6.72028 -12.3774
thorax -3.43545 1.9279 -19.4784
lowerneck -11.4739 -4.05773 7.97155
upperneck 19.4345 -9.14519 8.01658
head 8.0471 -3.07558 0.398799
rclavicle -4.92986e-014 4.53229e-014
rhumerus 59.7089 -16.7189 -22.5846
rradius 38.5923
rwrist -33.3795
rhand -39.0076 -9.79656
rfingers 7.12502
rthumb -12.011 -39.4319
lclavicle -4.92986e-014 4.53229e-014
lhumerus 463.194 12.8684 -352.803
lradius 32.5467
lwrist 40.0992
lhand -41.1934 -15.921
lfingers 7.12502
lthumb -14.118 373.579
rfemur -55.576 -3.35471 26.3716
rtibia 45.4963
rfoot 18.2133 4.70149
rtoes -24.4185
lfemur -56.887 6.84073 -28.9389
ltibia 55.6366
lfoot 19.3099 -3.29072
ltoes -5.47495
2432
root 4.48361 14.4764 10.5242 -68.7828 -76.0689 170.8
lowerback -13.1094 6.33799 11.6205
upperback -13.0029 6.77446 -12.5114
thorax -3.40449 1.95093 -19.6914
lowerneck -11.5705 -4.10645 8.20743
upperneck 19.3434 -9.20294 7.80544
head 8.01301 -3.10702 0.286009
rclavicle 3.33958e-014 7.67309e-014
rhumerus 59.2237 -16.8111 -22.2672
rradius 38.1738
rwrist -31.3167
rhand -38.3186 -8.72196
rfingers 7.12502
rthumb -11.3466 -38.395
lclavicle 3.33958e-014 7.67309e-014
lhumerus 463.201 12.704 -352.999
lradius 32.2347
lwrist 39.7897
lhand -40.7484 -17.3929
lfingers 7.12502
lthumb -13.6892 372.137
rfemur -55.3483 -3.39103 26.5569
rtibia 44.387
rfoot 18.2924 4.25926
rtoes -24.2998
lfemur -56.6126 6.70485 -28.8822
ltibia 54.2538
lfoot 19.8759 -2.93497
ltoes -3.29314
2433
root 4.50686 14.4564 10.5221 -68.7635 -76.0851 170.639
lowerback -13.0699 6.37025 11.6831
upperback -13.004 6.81902 -12.6239
thorax -3.38472 1.96984 -19.8678
lowerneck -11.6575 -4.14032 8.41107
upperneck 19.2345 -9.23028 7.59084
head 7.97157 -3.12847 0.180877
rclavicle -9.06458e-014 -4.41302e-014
rhumerus 58.7812 -16.8747 -21.9478
rradius 37.6648
rwrist -29.0752
rhand -37.5464 -7.42099
rfingers 7.12502
rthumb -10.6017 -37.1336
lclavicle -9.06458e-014 -4.41302e-014
lhumerus 463.109 12.5297 -353.225
lradius 31.8494
lwrist 39.5203
lhand -40.1457 -19.4914
lfingers 7.12502
lthumb -13.1082 370.077
rfemur -55.1521 -3.44213 26.7396
rtibia 43.4726
rfoot 18.3617 3.87213
rtoes -24.1907
lfemur -56.3665 6.6322 -28.8735
ltibia 53.0876
lfoot 20.3347 -2.31089
ltoes -0.750392
2434
root 4.52996 14.4382 10.5208 -68.8194 -76.0939 170.543
lowerback -13.0271 6.3978 11.7276
upperback -13.0046 6.85867 -12.7163
thorax -3.37298 1.98718 -20.0094
lowerneck -11.7365 -4.16406 8.57465
upperneck 19.1071 -9.23202 7.37281
head 7.92337 -3.1425 0.0841115
rclavicle -4.29375e-014 -1.14102e-013
rhumerus 58.3578 -16.9205 -21.5997
rradius 37.0541
rwrist -26.6288
rhand -36.5866 -5.68456
rfingers 7.12502
rthumb -9.67583 -35.4423
lclavicle -4.29375e-014 -1.14102e-013
lhumerus 462.934 12.347 -353.466
lradius 31.4113
lwrist 39.2837
lhand -39.5247 -21.8461
lfingers 7.12502
lthumb -12.5095 367.759
rfemur -55.0002 -3.50203 26.908
rtibia 42.7592
rfoot 18.4237 3.58338
rtoes -24.1499
lfemur -56.1554 6.61626 -28.916
ltibia 52.1667
lfoot 20.6338 -1.57332
ltoes 1.54085
2435
root 4.55372 14.422 10.5205 -68.9175 -76.0971 170.485
lowerback -12.9859 6.41981 11.7645
upperback -13.003 6.89093 -12.7911
thorax -3.36443 2.00138 -20.1255
lowerneck -11.814 -4.17918 8.69486
upperneck 18.9626 -9.21135 7.15484
head 7.87056 -3.1501 -0.00319644
rclavicle 2.22639e-014 -2.78299e-014
rhumerus 57.9335 -16.9455 -21.1985
rradius 36.3795
rwrist -24.0623
rhand -35.5922 -3.72459
rfingers 7.12502
rthumb -8.71627 -33.5246
lclavicle 2.22639e-014 -2.78299e-014
lhumerus 462.662 12.185 -353.785
lradius 30.9408
lwrist 39.0744
lhand -39.0031 -24.1021
lfingers 7.12502
lthumb -12.0067 365.534
rfemur -54.9049 -3.56204 27.0542
rtibia 42.2518
rfoot 18.463 3.44614
rtoes -24.371
lfemur -55.9849 6.64305 -29.0003
ltibia 51.5116
lfoot 20.7838 -0.839962
ltoes 3.24593
2436
root 4.57878 14.4079 10.5215 -69.0255 -76.0958 170.432
lowerback -12.9431 6.43595 11.7999
upperback -12.9997 6.91523 -12.8493
thorax -3.3608 2.01147 -20.2219
lowerneck -11.8899 -4.18313 8.80401
upperneck 18.8018 -9.1654 6.90995
head 7.81082 -3.1501 -0.0945241
rclavicle 9.54166e-015 -1.11319e-014
rhumerus 57.4791 -16.9403 -20.7138
rradius 35.6683
rwrist -21.3176
rhand -34.5889 -1.61875
rfingers 7.12502
rthumb -7.74799 -31.4568
lclavicle 9.54166e-015 -1.11319e-014
lhumerus 462.299 12.0559 -354.212
lradius 30.4626
lwrist 38.8811
lhand -38.6848 -25.9458
lfingers 7.12502
lthumb -11.6997 363.708
rfemur -54.876 -3.61478 27.1688
rtibia 41.9572
rfoot 18.4935 3.50927
rtoes -24.9605
lfemur -55.8578 6.71045 -29.1261
ltibia 51.1306
lfoot 20.7887 -0.223924
ltoes 3.96558
2437
root 4.60585 14.3962 10.5235 -69.1521 -76.0873 170.399
lowerback -12.9 6.44747 11.8286
upperback -12.9955 6.93342 -12.8985
thorax -3.36107 2.01855 -20.3042
lowerneck -11.9637 -4.18324 8.89111
upperneck 18.6221 -9.10637 6.65858
head 7.74497 -3.14718 -0.182698
rclavicle 4.45278e-014 2.74323e-014
rhumerus 56.9526 -16.8863 -20.1041
rradius 34.9737
rwrist -18.3472
rhand -33.6775 0.249768
rfingers 7.12502
rthumb -6.86824 -29.6188
lclavicle 4.45278e-014 2.74323e-014
lhumerus 461.855 11.9659 -354.769
lradius 30.0054
lwrist 38.6852
lhand -38.6255 -27.0602
lfingers 7.12502
lthumb -11.6425 362.596
rfemur -54.9228 -3.64165 27.2369
rtibia 41.8798
rfoot 18.5375 3.79299
rtoes -25.9798
lfemur -55.7785 6.82141 -29.2977
ltibia 51.0214
lfoot 20.6713 0.252598
ltoes 3.59172
2438
root 4.63499 14.387 10.5265 -69.2864 -76.0712 170.376
lowerback -12.8534 6.45436 11.8513
upperback -12.9911 6.94581 -12.9378
thorax -3.36761 2.02249 -20.372
lowerneck -12.028 -4.17648 8.98645
upperneck 18.4158 -9.02794 6.37141
head 7.66647 -3.13964 -0.280894
rclavicle 1.43125e-014 2.00375e-013
rhumerus 56.3472 -16.7763 -19.3677
rradius 34.3327
rwrist -15.1623
rhand -32.9398 1.60541
rfingers 7.12502
rthumb -6.15613 -28.2851
lclavicle 1.43125e-014 2.00375e-013
lhumerus 461.314 11.9277 -355.485
lradius 29.5665
lwrist 38.531
lhand -38.7392 -27.5257
lfingers 7.12502
lthumb -11.7521 362.125
rfemur -55.0462 -3.63876 27.2523
rtibia 42.0213
rfoot 18.6189 4.26507
rtoes -27.3012
lfemur -55.7515 6.97834 -29.5192
ltibia 51.1712
lfoot 20.4837 0.570367
ltoes 2.15019
2439
root 4.6661 14.3806 10.5301 -69.4415 -76.0538 170.381
lowerback -12.8038 6.45288 11.8666
upperback -12.9865 6.94698 -12.9621
thorax -3.38343 2.02019 -20.4192
lowerneck -12.0793 -4.16756 9.05095
upperneck 18.1803 -8.93402 6.07428
head 7.57689 -3.12963 -0.374947
rclavicle 9.22361e-014 9.34288e-014
rhumerus 55.6869 -16.6066 -18.5312
rradius 33.7695
rwrist -11.8239
rhand -32.3395 2.27587
rfingers 7.12502
rthumb -5.57648 -27.6308
lclavicle 9.22361e-014 9.34288e-014
lhumerus 460.64 11.9591 -356.416
lradius 29.1462
lwrist 38.4704
lhand -38.903 -27.4748
lfingers 7.12502
lthumb -11.9102 362.166
rfemur -55.2383 -3.59366 27.2155
rtibia 42.3771
rfoot 18.7567 4.86612
rtoes -28.7483
lfemur -55.7803 7.19444 -29.7869
ltibia 51.5585
lfoot 20.28 0.761896
ltoes 0.188545
2440
root 4.69843 14.377 10.5343 -69.6145 -76.0342 170.41
lowerback -12.749 6.44589 11.8786
upperback -12.9809 6.9412 -12.9749
thorax -3.40609 2.01408 -20.452
lowerneck -12.1165 -4.1569 9.10419
upperneck 17.9109 -8.8253 5.75093
head 7.47306 -3.11774 -0.473024
rclavicle -1.19271e-013 -1.43125e-014
rhumerus 54.9727 -16.3889 -17.6142
rradius 33.2831
rwrist -8.46685
rhand -31.8081 2.44757
rfingers 7.12502
rthumb -5.06339 -27.4719
lclavicle -1.19271e-013 -1.43125e-014
lhumerus 459.826 12.0585 -357.56
lradius 28.7583
lwrist 38.5929
lhand -39.0008 -27.1225
lfingers 7.12502
lthumb -12.0045 362.513
rfemur -55.4836 -3.50382 27.1188
rtibia 42.936
rfoot 18.9532 5.45101
rtoes -29.9159
lfemur -55.8609 7.46211 -30.0901
ltibia 52.1556
lfoot 20.0961 0.922108
ltoes -1.71015
2441
root 4.73114 14.3765 10.5387 -69.8107 -76.0166 170.468
lowerback -12.6928 6.42869 11.8878
upperback -12.9705 6.92147 -12.9712
thorax -3.43317 2.00096 -20.4651
lowerneck -12.1468 -4.139 9.1492
upperneck 17.6112 -8.697 5.40055
head 7.3577 -3.10104 -0.575642
rclavicle -7.4743e-014 8.66701e-014
rhumerus 54.2514 -16.1405 -16.6821
rradius 32.86
rwrist -5.24835
rhand -31.2953 2.22672
rfingers 7.12502
rthumb -4.5683 -27.704
lclavicle -7.4743e-014 8.66701e-014
lhumerus 458.792 12.2641 -359.074
lradius 28.4286
lwrist 39.0349
lhand -38.958 -26.6658
lfingers 7.12502
lthumb -11.9631 362.972
rfemur -55.7615 -3.36782 26.9649
rtibia 43.6782
rfoot 19.2088 5.93186
rtoes -30.6383
lfemur -55.9885 7.78124 -30.4146
ltibia 52.9316
lfoot 19.9558 1.07255
ltoes -3.21628
